<mxfile host="app.diagrams.net" modified="2024-06-06T20:39:29.977Z" agent="Mozilla/5.0 (Windows NT 10.0; Win64; x64) AppleWebKit/537.36 (KHTML, like Gecko) Chrome/125.0.0.0 Safari/537.36 Edg/125.0.0.0" etag="xHQ9No4NaC_Xm8qJb6vj" version="24.5.1" type="device">
  <diagram name="Strona-1" id="AAfU9PTdqU3OT57lOY5Y">
    <mxGraphModel dx="867" dy="476" grid="1" gridSize="10" guides="1" tooltips="1" connect="1" arrows="1" fold="1" page="1" pageScale="1" pageWidth="827" pageHeight="1169" math="0" shadow="0">
      <root>
        <mxCell id="0" />
        <mxCell id="1" parent="0" />
        <mxCell id="lPn5sFPRTpgDtUURN3yU-32" value="ZamÃ³wienia" style="swimlane;fontStyle=1;align=center;verticalAlign=top;childLayout=stackLayout;horizontal=1;startSize=26;horizontalStack=0;resizeParent=1;resizeParentMax=0;resizeLast=0;collapsible=1;marginBottom=0;whiteSpace=wrap;html=1;" parent="1" vertex="1">
          <mxGeometry x="92" y="39" width="160" height="60" as="geometry" />
        </mxCell>
        <mxCell id="lPn5sFPRTpgDtUURN3yU-33" value="- idZamowienia: Integer" style="text;strokeColor=none;fillColor=none;align=left;verticalAlign=top;spacingLeft=4;spacingRight=4;overflow=hidden;rotatable=0;points=[[0,0.5],[1,0.5]];portConstraint=eastwest;whiteSpace=wrap;html=1;" parent="lPn5sFPRTpgDtUURN3yU-32" vertex="1">
          <mxGeometry y="26" width="160" height="26" as="geometry" />
        </mxCell>
        <mxCell id="lPn5sFPRTpgDtUURN3yU-34" value="" style="line;strokeWidth=1;fillColor=none;align=left;verticalAlign=middle;spacingTop=-1;spacingLeft=3;spacingRight=3;rotatable=0;labelPosition=right;points=[];portConstraint=eastwest;strokeColor=inherit;" parent="lPn5sFPRTpgDtUURN3yU-32" vertex="1">
          <mxGeometry y="52" width="160" height="8" as="geometry" />
        </mxCell>
        <mxCell id="lPn5sFPRTpgDtUURN3yU-35" value="Nabywcy" style="swimlane;fontStyle=1;align=center;verticalAlign=top;childLayout=stackLayout;horizontal=1;startSize=26;horizontalStack=0;resizeParent=1;resizeParentMax=0;resizeLast=0;collapsible=1;marginBottom=0;whiteSpace=wrap;html=1;" parent="1" vertex="1">
          <mxGeometry x="397" y="30" width="160" height="120" as="geometry" />
        </mxCell>
        <mxCell id="lPn5sFPRTpgDtUURN3yU-36" value="- idNabywcy: Integer&lt;div&gt;- adres: String&lt;/div&gt;" style="text;strokeColor=none;fillColor=none;align=left;verticalAlign=top;spacingLeft=4;spacingRight=4;overflow=hidden;rotatable=0;points=[[0,0.5],[1,0.5]];portConstraint=eastwest;whiteSpace=wrap;html=1;" parent="lPn5sFPRTpgDtUURN3yU-35" vertex="1">
          <mxGeometry y="26" width="160" height="44" as="geometry" />
        </mxCell>
        <mxCell id="lPn5sFPRTpgDtUURN3yU-37" value="" style="line;strokeWidth=1;fillColor=none;align=left;verticalAlign=middle;spacingTop=-1;spacingLeft=3;spacingRight=3;rotatable=0;labelPosition=right;points=[];portConstraint=eastwest;strokeColor=inherit;" parent="lPn5sFPRTpgDtUURN3yU-35" vertex="1">
          <mxGeometry y="70" width="160" height="8" as="geometry" />
        </mxCell>
        <mxCell id="lPn5sFPRTpgDtUURN3yU-38" value="+ zmienAdres()&lt;div&gt;+ odczytajAdres()&lt;/div&gt;" style="text;strokeColor=none;fillColor=none;align=left;verticalAlign=top;spacingLeft=4;spacingRight=4;overflow=hidden;rotatable=0;points=[[0,0.5],[1,0.5]];portConstraint=eastwest;whiteSpace=wrap;html=1;" parent="lPn5sFPRTpgDtUURN3yU-35" vertex="1">
          <mxGeometry y="78" width="160" height="42" as="geometry" />
        </mxCell>
        <mxCell id="lPn5sFPRTpgDtUURN3yU-39" value="OsobaFizyczna" style="swimlane;fontStyle=1;align=center;verticalAlign=top;childLayout=stackLayout;horizontal=1;startSize=26;horizontalStack=0;resizeParent=1;resizeParentMax=0;resizeLast=0;collapsible=1;marginBottom=0;whiteSpace=wrap;html=1;" parent="1" vertex="1">
          <mxGeometry x="667" y="30" width="160" height="230" as="geometry" />
        </mxCell>
        <mxCell id="lPn5sFPRTpgDtUURN3yU-40" value="- idOsobyFizycznej: Integer&lt;div&gt;- nazwisko: String&lt;/div&gt;&lt;div&gt;- imie: String&lt;/div&gt;" style="text;strokeColor=none;fillColor=none;align=left;verticalAlign=top;spacingLeft=4;spacingRight=4;overflow=hidden;rotatable=0;points=[[0,0.5],[1,0.5]];portConstraint=eastwest;whiteSpace=wrap;html=1;" parent="lPn5sFPRTpgDtUURN3yU-39" vertex="1">
          <mxGeometry y="26" width="160" height="74" as="geometry" />
        </mxCell>
        <mxCell id="lPn5sFPRTpgDtUURN3yU-41" value="" style="line;strokeWidth=1;fillColor=none;align=left;verticalAlign=middle;spacingTop=-1;spacingLeft=3;spacingRight=3;rotatable=0;labelPosition=right;points=[];portConstraint=eastwest;strokeColor=inherit;" parent="lPn5sFPRTpgDtUURN3yU-39" vertex="1">
          <mxGeometry y="100" width="160" height="60" as="geometry" />
        </mxCell>
        <mxCell id="lPn5sFPRTpgDtUURN3yU-42" value="+ zmienNazwisko()&lt;div&gt;+zmienImie()&lt;/div&gt;&lt;div&gt;+ odczytajNazwisko()&lt;div&gt;+odcztytajImie()&lt;/div&gt;&lt;/div&gt;" style="text;html=1;align=center;verticalAlign=middle;resizable=0;points=[];autosize=1;strokeColor=none;fillColor=none;" parent="lPn5sFPRTpgDtUURN3yU-39" vertex="1">
          <mxGeometry y="160" width="160" height="70" as="geometry" />
        </mxCell>
        <mxCell id="lPn5sFPRTpgDtUURN3yU-43" value="Dostawy" style="swimlane;fontStyle=1;align=center;verticalAlign=top;childLayout=stackLayout;horizontal=1;startSize=26;horizontalStack=0;resizeParent=1;resizeParentMax=0;resizeLast=0;collapsible=1;marginBottom=0;whiteSpace=wrap;html=1;" parent="1" vertex="1">
          <mxGeometry x="77" y="249" width="160" height="86" as="geometry" />
        </mxCell>
        <mxCell id="lPn5sFPRTpgDtUURN3yU-44" value="- idDostawy: Integer" style="text;strokeColor=none;fillColor=none;align=left;verticalAlign=top;spacingLeft=4;spacingRight=4;overflow=hidden;rotatable=0;points=[[0,0.5],[1,0.5]];portConstraint=eastwest;whiteSpace=wrap;html=1;" parent="lPn5sFPRTpgDtUURN3yU-43" vertex="1">
          <mxGeometry y="26" width="160" height="26" as="geometry" />
        </mxCell>
        <mxCell id="lPn5sFPRTpgDtUURN3yU-45" value="- wiadomosc: String" style="text;strokeColor=none;fillColor=none;align=left;verticalAlign=top;spacingLeft=4;spacingRight=4;overflow=hidden;rotatable=0;points=[[0,0.5],[1,0.5]];portConstraint=eastwest;whiteSpace=wrap;html=1;" parent="lPn5sFPRTpgDtUURN3yU-43" vertex="1">
          <mxGeometry y="52" width="160" height="26" as="geometry" />
        </mxCell>
        <mxCell id="lPn5sFPRTpgDtUURN3yU-46" value="" style="line;strokeWidth=1;fillColor=none;align=left;verticalAlign=middle;spacingTop=-1;spacingLeft=3;spacingRight=3;rotatable=0;labelPosition=right;points=[];portConstraint=eastwest;strokeColor=inherit;" parent="lPn5sFPRTpgDtUURN3yU-43" vertex="1">
          <mxGeometry y="78" width="160" height="8" as="geometry" />
        </mxCell>
        <mxCell id="lPn5sFPRTpgDtUURN3yU-47" value="Firmy" style="swimlane;fontStyle=1;align=center;verticalAlign=top;childLayout=stackLayout;horizontal=1;startSize=26;horizontalStack=0;resizeParent=1;resizeParentMax=0;resizeLast=0;collapsible=1;marginBottom=0;whiteSpace=wrap;html=1;" parent="1" vertex="1">
          <mxGeometry x="657" y="279" width="160" height="140" as="geometry" />
        </mxCell>
        <mxCell id="lPn5sFPRTpgDtUURN3yU-48" value="- idFirmy: Integer&lt;div&gt;- nazwa: String&lt;/div&gt;" style="text;strokeColor=none;fillColor=none;align=left;verticalAlign=top;spacingLeft=4;spacingRight=4;overflow=hidden;rotatable=0;points=[[0,0.5],[1,0.5]];portConstraint=eastwest;whiteSpace=wrap;html=1;" parent="lPn5sFPRTpgDtUURN3yU-47" vertex="1">
          <mxGeometry y="26" width="160" height="44" as="geometry" />
        </mxCell>
        <mxCell id="lPn5sFPRTpgDtUURN3yU-49" value="" style="line;strokeWidth=1;fillColor=none;align=left;verticalAlign=middle;spacingTop=-1;spacingLeft=3;spacingRight=3;rotatable=0;labelPosition=right;points=[];portConstraint=eastwest;strokeColor=inherit;" parent="lPn5sFPRTpgDtUURN3yU-47" vertex="1">
          <mxGeometry y="70" width="160" height="30" as="geometry" />
        </mxCell>
        <mxCell id="lPn5sFPRTpgDtUURN3yU-50" value="+ zmienNazwe()&lt;div&gt;+ odczytajNazwe()&lt;/div&gt;" style="text;html=1;align=center;verticalAlign=middle;resizable=0;points=[];autosize=1;strokeColor=none;fillColor=none;" parent="lPn5sFPRTpgDtUURN3yU-47" vertex="1">
          <mxGeometry y="100" width="160" height="40" as="geometry" />
        </mxCell>
        <mxCell id="lPn5sFPRTpgDtUURN3yU-57" value="Pozycje" style="swimlane;fontStyle=1;align=center;verticalAlign=top;childLayout=stackLayout;horizontal=1;startSize=26;horizontalStack=0;resizeParent=1;resizeParentMax=0;resizeLast=0;collapsible=1;marginBottom=0;whiteSpace=wrap;html=1;" parent="1" vertex="1">
          <mxGeometry x="377" y="245" width="160" height="120" as="geometry" />
        </mxCell>
        <mxCell id="lPn5sFPRTpgDtUURN3yU-58" value="- nrPozycji: Integer&lt;div&gt;- ilosc: Integer&lt;/div&gt;&lt;div&gt;&lt;br&gt;&lt;/div&gt;" style="text;strokeColor=none;fillColor=none;align=left;verticalAlign=top;spacingLeft=4;spacingRight=4;overflow=hidden;rotatable=0;points=[[0,0.5],[1,0.5]];portConstraint=eastwest;whiteSpace=wrap;html=1;" parent="lPn5sFPRTpgDtUURN3yU-57" vertex="1">
          <mxGeometry y="26" width="160" height="44" as="geometry" />
        </mxCell>
        <mxCell id="lPn5sFPRTpgDtUURN3yU-59" value="" style="line;strokeWidth=1;fillColor=none;align=left;verticalAlign=middle;spacingTop=-1;spacingLeft=3;spacingRight=3;rotatable=0;labelPosition=right;points=[];portConstraint=eastwest;strokeColor=inherit;" parent="lPn5sFPRTpgDtUURN3yU-57" vertex="1">
          <mxGeometry y="70" width="160" height="8" as="geometry" />
        </mxCell>
        <mxCell id="lPn5sFPRTpgDtUURN3yU-60" value="+ zmienloscPozycji()&lt;div&gt;+ odczytajIloscPozycji()&lt;/div&gt;" style="text;strokeColor=none;fillColor=none;align=left;verticalAlign=top;spacingLeft=4;spacingRight=4;overflow=hidden;rotatable=0;points=[[0,0.5],[1,0.5]];portConstraint=eastwest;whiteSpace=wrap;html=1;" parent="lPn5sFPRTpgDtUURN3yU-57" vertex="1">
          <mxGeometry y="78" width="160" height="42" as="geometry" />
        </mxCell>
        <mxCell id="lPn5sFPRTpgDtUURN3yU-61" value="Towar" style="swimlane;fontStyle=1;align=center;verticalAlign=top;childLayout=stackLayout;horizontal=1;startSize=26;horizontalStack=0;resizeParent=1;resizeParentMax=0;resizeLast=0;collapsible=1;marginBottom=0;whiteSpace=wrap;html=1;" parent="1" vertex="1">
          <mxGeometry x="377" y="462" width="160" height="220" as="geometry" />
        </mxCell>
        <mxCell id="lPn5sFPRTpgDtUURN3yU-62" value="- idTowaru: Integer&lt;div&gt;- nazwa: String&lt;/div&gt;&lt;div&gt;- cena: Decimal&lt;/div&gt;&lt;div&gt;- opis: String&lt;/div&gt;&lt;div&gt;&lt;br&gt;&lt;/div&gt;" style="text;strokeColor=none;fillColor=none;align=left;verticalAlign=top;spacingLeft=4;spacingRight=4;overflow=hidden;rotatable=0;points=[[0,0.5],[1,0.5]];portConstraint=eastwest;whiteSpace=wrap;html=1;" parent="lPn5sFPRTpgDtUURN3yU-61" vertex="1">
          <mxGeometry y="26" width="160" height="84" as="geometry" />
        </mxCell>
        <mxCell id="lPn5sFPRTpgDtUURN3yU-63" value="" style="line;strokeWidth=1;fillColor=none;align=left;verticalAlign=middle;spacingTop=-1;spacingLeft=3;spacingRight=3;rotatable=0;labelPosition=right;points=[];portConstraint=eastwest;strokeColor=inherit;" parent="lPn5sFPRTpgDtUURN3yU-61" vertex="1">
          <mxGeometry y="110" width="160" height="8" as="geometry" />
        </mxCell>
        <mxCell id="lPn5sFPRTpgDtUURN3yU-64" value="+ zmienNazwe()&lt;div&gt;+ zmienCene()&lt;/div&gt;&lt;div&gt;+ zmienOpis()&lt;/div&gt;&lt;div&gt;+ odczytajNazwe()&lt;/div&gt;&lt;div&gt;+ odczytajCene()&lt;/div&gt;&lt;div&gt;+ odczytajOpis()&lt;/div&gt;" style="text;strokeColor=none;fillColor=none;align=left;verticalAlign=top;spacingLeft=4;spacingRight=4;overflow=hidden;rotatable=0;points=[[0,0.5],[1,0.5]];portConstraint=eastwest;whiteSpace=wrap;html=1;" parent="lPn5sFPRTpgDtUURN3yU-61" vertex="1">
          <mxGeometry y="118" width="160" height="102" as="geometry" />
        </mxCell>
        <mxCell id="lPn5sFPRTpgDtUURN3yU-65" value="" style="endArrow=open;html=1;rounded=0;exitX=1.006;exitY=0.116;exitDx=0;exitDy=0;exitPerimeter=0;" parent="1" source="lPn5sFPRTpgDtUURN3yU-32" edge="1">
          <mxGeometry relative="1" as="geometry">
            <mxPoint x="267" y="49" as="sourcePoint" />
            <mxPoint x="397" y="49" as="targetPoint" />
          </mxGeometry>
        </mxCell>
        <mxCell id="lPn5sFPRTpgDtUURN3yU-66" value="1..*" style="resizable=0;html=1;whiteSpace=wrap;align=left;verticalAlign=bottom;" parent="lPn5sFPRTpgDtUURN3yU-65" connectable="0" vertex="1">
          <mxGeometry x="-1" relative="1" as="geometry">
            <mxPoint x="14" as="offset" />
          </mxGeometry>
        </mxCell>
        <mxCell id="lPn5sFPRTpgDtUURN3yU-67" value="1..1" style="resizable=0;html=1;whiteSpace=wrap;align=right;verticalAlign=bottom;" parent="lPn5sFPRTpgDtUURN3yU-65" connectable="0" vertex="1">
          <mxGeometry x="1" relative="1" as="geometry">
            <mxPoint x="-10" as="offset" />
          </mxGeometry>
        </mxCell>
        <mxCell id="lPn5sFPRTpgDtUURN3yU-68" value="" style="endArrow=none;html=1;rounded=0;exitX=0.1;exitY=0.75;exitDx=0;exitDy=0;exitPerimeter=0;entryX=0.2;entryY=-0.027;entryDx=0;entryDy=0;entryPerimeter=0;" parent="1" source="lPn5sFPRTpgDtUURN3yU-34" target="lPn5sFPRTpgDtUURN3yU-43" edge="1">
          <mxGeometry relative="1" as="geometry">
            <mxPoint x="107.03999999999996" y="125" as="sourcePoint" />
            <mxPoint x="244" y="169" as="targetPoint" />
          </mxGeometry>
        </mxCell>
        <mxCell id="lPn5sFPRTpgDtUURN3yU-69" value="1..*" style="resizable=0;html=1;whiteSpace=wrap;align=left;verticalAlign=bottom;" parent="lPn5sFPRTpgDtUURN3yU-68" connectable="0" vertex="1">
          <mxGeometry x="-1" relative="1" as="geometry">
            <mxPoint x="-30" y="24" as="offset" />
          </mxGeometry>
        </mxCell>
        <mxCell id="lPn5sFPRTpgDtUURN3yU-70" value="1..1" style="resizable=0;html=1;whiteSpace=wrap;align=right;verticalAlign=bottom;" parent="lPn5sFPRTpgDtUURN3yU-68" connectable="0" vertex="1">
          <mxGeometry x="1" relative="1" as="geometry">
            <mxPoint x="-10" as="offset" />
          </mxGeometry>
        </mxCell>
        <mxCell id="lPn5sFPRTpgDtUURN3yU-77" value="" style="endArrow=open;html=1;rounded=0;exitX=0.531;exitY=1.077;exitDx=0;exitDy=0;entryX=0.5;entryY=0;entryDx=0;entryDy=0;exitPerimeter=0;" parent="1" source="lPn5sFPRTpgDtUURN3yU-60" target="lPn5sFPRTpgDtUURN3yU-61" edge="1">
          <mxGeometry relative="1" as="geometry">
            <mxPoint x="471" y="361" as="sourcePoint" />
            <mxPoint x="618" y="490" as="targetPoint" />
          </mxGeometry>
        </mxCell>
        <mxCell id="lPn5sFPRTpgDtUURN3yU-78" value="0..*" style="resizable=0;html=1;whiteSpace=wrap;align=left;verticalAlign=bottom;" parent="lPn5sFPRTpgDtUURN3yU-77" connectable="0" vertex="1">
          <mxGeometry x="-1" relative="1" as="geometry">
            <mxPoint x="9" y="18" as="offset" />
          </mxGeometry>
        </mxCell>
        <mxCell id="lPn5sFPRTpgDtUURN3yU-79" value="1..1" style="resizable=0;html=1;whiteSpace=wrap;align=right;verticalAlign=bottom;" parent="lPn5sFPRTpgDtUURN3yU-77" connectable="0" vertex="1">
          <mxGeometry x="1" relative="1" as="geometry">
            <mxPoint x="30" y="-13" as="offset" />
          </mxGeometry>
        </mxCell>
        <mxCell id="lPn5sFPRTpgDtUURN3yU-82" value="" style="endArrow=block;endSize=16;endFill=0;html=1;rounded=0;exitX=0;exitY=0;exitDx=0;exitDy=0;entryX=0.994;entryY=1.024;entryDx=0;entryDy=0;entryPerimeter=0;" parent="1" source="lPn5sFPRTpgDtUURN3yU-47" target="lPn5sFPRTpgDtUURN3yU-38" edge="1">
          <mxGeometry width="160" relative="1" as="geometry">
            <mxPoint x="330" y="400" as="sourcePoint" />
            <mxPoint x="490" y="400" as="targetPoint" />
          </mxGeometry>
        </mxCell>
        <mxCell id="lPn5sFPRTpgDtUURN3yU-83" value="" style="endArrow=block;endSize=16;endFill=0;html=1;rounded=0;exitX=-0.006;exitY=0.122;exitDx=0;exitDy=0;entryX=1.019;entryY=0.25;entryDx=0;entryDy=0;entryPerimeter=0;exitPerimeter=0;" parent="1" source="lPn5sFPRTpgDtUURN3yU-40" target="lPn5sFPRTpgDtUURN3yU-36" edge="1">
          <mxGeometry width="160" relative="1" as="geometry">
            <mxPoint x="667" y="289" as="sourcePoint" />
            <mxPoint x="566" y="161" as="targetPoint" />
          </mxGeometry>
        </mxCell>
        <mxCell id="lPn5sFPRTpgDtUURN3yU-84" value="" style="endArrow=none;endFill=0;endSize=24;html=1;rounded=0;exitX=0;exitY=0;exitDx=0;exitDy=0;" parent="1" source="lPn5sFPRTpgDtUURN3yU-57" edge="1">
          <mxGeometry width="160" relative="1" as="geometry">
            <mxPoint x="300" y="400" as="sourcePoint" />
            <mxPoint x="252" y="95" as="targetPoint" />
          </mxGeometry>
        </mxCell>
        <mxCell id="lPn5sFPRTpgDtUURN3yU-85" value="1..*" style="resizable=0;html=1;whiteSpace=wrap;align=right;verticalAlign=bottom;" parent="1" connectable="0" vertex="1">
          <mxGeometry x="397.00212891955675" y="239.9966524214077" as="geometry" />
        </mxCell>
        <mxCell id="gE_la2HYPPyt4ISWnL82-1" value="1..1" style="resizable=0;html=1;whiteSpace=wrap;align=right;verticalAlign=bottom;" connectable="0" vertex="1" parent="1">
          <mxGeometry x="260.00212891955675" y="98.9966524214077" as="geometry">
            <mxPoint x="14" as="offset" />
          </mxGeometry>
        </mxCell>
      </root>
    </mxGraphModel>
  </diagram>
</mxfile>
